<?xml version="1.0" encoding="utf-8"?>
<!-- Generator: Adobe Illustrator 18.0.0, SVG Export Plug-In . SVG Version: 6.00 Build 0)  -->
<!DOCTYPE svg PUBLIC "-//W3C//DTD SVG 1.1//EN" "http://www.w3.org/Graphics/SVG/1.1/DTD/svg11.dtd">
<svg version="1.1" id="Layer_1" xmlns="http://www.w3.org/2000/svg" xmlns:xlink="http://www.w3.org/1999/xlink" x="0px" y="0px"
	 viewBox="0 0 175.6286316 169.9954376" style="enable-background:new 0 0 175.6286316 169.9954376;" xml:space="preserve">
<path d="M0.0000001,30.321455c0.1615304-1.2275982,0.2909101-2.4604454,0.4902356-3.6818771
	c0.8024507-4.9172707,2.6916966-9.396965,5.6420164-13.3971968c5.3016725-7.188343,12.4018669-11.4872046,21.21772-12.9075413
	c1.4062271-0.2265593,2.8490658-0.3160214,4.2750454-0.3166561c37.4002686-0.0166447,74.80056-0.0310598,112.2008057,0.0005222
	c8.3809052,0.0070771,15.6378174,3.029686,21.7312622,8.7483253c5.3871918,5.0558195,8.5940552,11.305913,9.7159882,18.604496
	c0.2134399,1.3883629,0.3168793,2.8074875,0.3181152,4.212553c0.0193024,22.1577225,0.0831757,44.3157845-0.019165,66.473053
	c-0.0437317,9.469429-3.8744354,17.3688812-10.9248047,23.6644974c-4.4667816,3.9886322-9.7156677,6.4578552-15.6121521,7.474762
	c-1.729126,0.2982025-3.5042114,0.4301453-5.2604828,0.4515533c-4.8793945,0.0594177-9.759964,0.0206299-14.6400604,0.0206299
	c-0.245636,0-0.4912567-0.0000153-0.7928619-0.0000153c2.0244446,15.6545868,8.1960907,29.2070007,19.5034637,40.3268738
	c-0.8052063-0.3452301-1.6158295-0.6784973-2.4148102-1.0375366c-8.4930878-3.8165894-16.4718781-8.4836273-23.6799774-14.4081421
	c-7.4914322-6.1574249-13.7179031-13.3601379-18.093605-22.0744781c-0.3811035-0.7589722-0.7585907-1.5229797-1.0748749-2.309906
	c-0.1631393-0.4059143-0.3901291-0.5439911-0.7944946-0.5001373c-0.1847153,0.02005-0.3734283,0.0033417-0.5603256,0.0033417
	c-22.9468613,0-45.893734-0.0103607-68.8405914,0.0058899c-7.4896736,0.0053101-14.2206306-2.2285538-20.0866318-6.8592148
	c-6.4283934-5.074646-10.3806715-11.6941605-11.8077707-19.7816391c-0.2149602-1.2181931-0.3305107-2.4539185-0.492045-3.6815414
	C0,76.3418655,0,53.3316612,0.0000001,30.321455z M120.0522842,122.3997803c0.2811127,0,0.5271988,0,0.7732849,0
	c7.4761581-0.0000076,14.9523392-0.0109482,22.4284744,0.0038376c5.0122375,0.0099106,9.664856-1.252449,13.8148193-4.0667648
	c7.2504425-4.9169159,11.1933136-11.7869492,11.234024-20.5692368c0.1008301-21.7427139,0.0342712-43.4862061,0.0288849-65.2293854
	c-0.0002136-0.8702888-0.0279083-1.7435169-0.1016693-2.6103649c-0.5011292-5.8896561-2.8378906-10.9746246-6.9628296-15.1710787
	c-4.9160767-5.0013103-10.9424591-7.5025134-17.9732819-7.5031505c-36.9657135-0.0033517-73.931427,0.0009584-110.8971329-0.0043402
	c-5.4394016-0.0007801-10.4168224,1.4776959-14.7907734,4.7244391C10.950182,16.9143467,7.3563075,23.5640488,7.3236494,31.8670845
	c-0.0864191,21.971283-0.0301661,43.9431267-0.0281191,65.9147491c0.0002398,2.5711136,0.4100165,5.0832901,1.2160492,7.5206223
	c3.3857584,10.2380981,12.9006767,17.0972748,23.6876774,17.0973053
	c24.7336502,0.0000534,49.4672928,0.0023422,74.2009354-0.0144119c0.5707397-0.0003891,0.8157959,0.1768951,1.0434952,0.6909256
	c1.0988693,2.4806519,2.1478882,4.9916611,3.4041214,7.3927231c3.4579544,6.6092529,8.257637,12.1524048,13.8593292,17.0299988
	c0.0972061,0.0846405,0.2222366,0.1373596,0.3342819,0.2049713
	C122.1292191,139.5245209,121.0865707,131.008728,120.0522842,122.3997803z"/>
</svg>
