<?xml version="1.0" encoding="utf-8"?>
<!-- Generator: Adobe Illustrator 18.0.0, SVG Export Plug-In . SVG Version: 6.00 Build 0)  -->
<!DOCTYPE svg PUBLIC "-//W3C//DTD SVG 1.1//EN" "http://www.w3.org/Graphics/SVG/1.1/DTD/svg11.dtd">
<svg version="1.1" id="Capa_1" xmlns="http://www.w3.org/2000/svg" xmlns:xlink="http://www.w3.org/1999/xlink" x="0px" y="0px"
	 viewBox="0 0 209 209" enable-background="new 0 0 209 209" xml:space="preserve">
<path d="M207.4,101.5l-99-69.7c-1.1-0.8-2.6-0.9-3.8-0.3c-1.2,0.6-2,1.9-2,3.3V100L5.8,31.9C4.7,31.1,3.2,31,2,31.6
	c-1.2,0.6-2,1.9-2,3.3v139.2c0,1.4,0.8,2.6,2,3.3c0.5,0.3,1.1,0.4,1.7,0.4c0.7,0,1.5-0.2,2.1-0.7l96.9-68.1v65.2
	c0,1.4,0.8,2.6,2,3.3c0.5,0.3,1.1,0.4,1.7,0.4c0.7,0,1.5-0.2,2.1-0.7l99-69.7c1-0.7,1.6-1.8,1.6-3
	C209,103.3,208.4,102.2,207.4,101.5z"/>
</svg>
