<?xml version="1.0" encoding="utf-8"?>
<!DOCTYPE svg PUBLIC "-//W3C//DTD SVG 1.1//EN" "http://www.w3.org/Graphics/SVG/1.1/DTD/svg11.dtd">
<svg version="1.1" id="Layer_1" xmlns="http://www.w3.org/2000/svg" xmlns:xlink="http://www.w3.org/1999/xlink" x="0px" y="0px"
	 viewBox="0 0 255.9204102 313.5267639" style="enable-background:new 0 0 255.9204102 313.5267639;" xml:space="preserve">
<path d="M0.0000208,312.3291626c0.5126038-2.8240967,0.5838318-5.3135071,1.4283142-7.5050049
	c3.5912476-9.3197327,7.3729248-18.5669861,11.1542358-27.812439
	C48.1253548,190.1069031,83.6787643,103.2064209,119.2435226,16.310606
	c2.256958-5.5145407,4.6342163-10.9799194,6.7437744-15.967803c3.2654953-1.0935516,4.3555222,0.6275482,5.1480026,2.3728638
	c1.8577881,4.0907135,3.5701904,8.2492676,5.2712402,12.4090576
	c38.184082,93.3786621,76.3619385,186.7597046,114.5234985,280.1474609c1.6997681,4.1593933,3.3433228,8.3493958,4.78125,12.6033936
	c0.428299,1.2666321,0.0661011,2.8005066,0.0661011,4.1912231c-12.0618896,1.9444885-34.2064819,1.8319702-45.0626221-0.2956238
	c-3.1201172-6.9712219-6.3515625-14.190979-9.305603-20.7906189c-4.9412842-2.851532-9.526062-1.9806519-13.9277344-1.9893799
	c-37.4732666-0.0740662-74.9463425-0.0462036-112.4196091-0.0403748c-4.4963379,0.0006714-8.9961548-0.040802-13.4875526,0.1231384
	c-1.9411011,0.0708618-3.8648071,0.6141357-6.1843872,1.0088196c-3.3596191,7.2972107-6.6617432,14.4697571-10.1143799,21.9689331
	c-2.052063,0.4383545-3.9433594,1.2047119-5.8273315,1.1864929
	C26.5319118,313.1132507,13.5631008,314.4171448,0.0000208,312.3291626z M183.2350311,246.1515961
	c-0.3662109-6.1013031-2.8137817-10.5427551-4.5858765-15.1140289
	c-12.2393188-31.5747986-24.6177979-63.0955811-36.9404297-94.6381073
	c-3.4431152-8.8135071-6.8389893-17.6455078-10.281189-26.4594727c-0.7331543-1.8776093-1.6472168-3.6418762-4.5377121-4.1817627
	c-0.9834595,1.9956665-2.2175903,4.0850372-3.0829468,6.3173218
	c-16.9215088,43.6429138-33.8067627,87.299881-50.6365356,130.9780884c-0.3169556,0.8227386,0.121582,1.936615,0.2497559,3.396286
	c2.3215942,0.3132935,4.7354736,0.8583527,7.1638184,0.9336548
	C114.1216965,248.4241638,170.2334442,247.7954712,183.2350311,246.1515961z"/>
</svg>
