<?xml version="1.0" encoding="utf-8"?>
<!-- Generator: Adobe Illustrator 18.0.0, SVG Export Plug-In . SVG Version: 6.00 Build 0)  -->
<!DOCTYPE svg PUBLIC "-//W3C//DTD SVG 1.1//EN" "http://www.w3.org/Graphics/SVG/1.1/DTD/svg11.dtd">
<svg version="1.1" id="Capa_1" xmlns="http://www.w3.org/2000/svg" xmlns:xlink="http://www.w3.org/1999/xlink" x="0px" y="0px"
	 viewBox="0 0 333.1 333.1" enable-background="new 0 0 333.1 333.1" xml:space="preserve">
<path d="M167,0C75.9,0,2,73.9,2,165s73.9,165,165,165s165-73.9,165-165S258.1,0,167,0z M235.4,207.2c7.2,7.2,7.1,19.5-0.2,26.8
	c-7.3,7.3-19.6,7.4-26.8,0.2l-41.1-41.1L125,233c-7.4,7-19.7,6.6-26.8-1c-7.1-7.5-6.8-19.8,0.6-26.8l41.5-39.1L100,125.8
	c-7.2-7.2-7.1-19.5,0.2-26.8s19.6-7.4,26.8-0.2l41.1,41.1l42.3-39.9c7.4-7,19.7-6.6,26.8,1s6.8,19.8-0.6,26.8l-41.4,39.1
	L235.4,207.2z"/>
</svg>
