<?xml version="1.0" encoding="iso-8859-1"?>
<!-- Generator: Adobe Illustrator 19.0.0, SVG Export Plug-In . SVG Version: 6.00 Build 0)  -->
<svg version="1.1" id="Capa_1" xmlns="http://www.w3.org/2000/svg" xmlns:xlink="http://www.w3.org/1999/xlink" x="0px" y="0px"
	 viewBox="0 0 60 60" style="enable-background:new 0 0 60 60;" xml:space="preserve">
<g>
	<path d="M51.676,21.931C45.917,16.171,38.26,13,30.115,13s-15.802,3.171-21.561,8.931l-7.941,7.941l7.711,7.711
		c5.759,5.759,13.416,8.931,21.561,8.931s15.802-3.171,21.561-8.931l7.941-7.941L51.676,21.931z M50.031,36.168
		c-5.381,5.381-12.536,8.345-20.146,8.345S15.12,41.55,9.738,36.168l-6.297-6.297l6.527-6.527C15.35,17.963,22.505,15,30.115,15
		s14.765,2.963,20.146,8.345l6.297,6.297L50.031,36.168z"/>
	<path d="M29.671,16.97c-7.065,0-12.813,5.748-12.813,12.813s5.748,12.813,12.813,12.813c7.064,0,12.813-5.748,12.813-12.813
		S36.735,16.97,29.671,16.97z M29.671,40.596c-5.963,0-10.813-4.851-10.813-10.813c0-5.962,4.851-10.813,10.813-10.813
		c5.962,0,10.813,4.851,10.813,10.813C40.483,35.745,35.633,40.596,29.671,40.596z"/>
</g>
</svg>
